Simulation
nRows=47
nColumns=15
endheader
time  TH_x TH_y TH_z SC_y  SC_z  SC_x  AC_y  AC_z  AC_x  GH_y  GH_z  GH_yy  EL_x  PS_y
1.4  0.000000  0.000000  0.000000  -41.65772840965066  9.326636698449441  -1.4176642576686023  66.32596529679874  36.49686099692734  9.772951161180117  -28.337139552020748  63.376644412797006  29.57211131600753  6.513604269355014  120.000000
1.428  0.000000  0.000000  0.000000  -41.84640011161332  9.494265958247588  -1.0926603594440125  66.51357341240086  36.47332630952335  9.97974004766816  -28.408628099535314  63.66254429213873  29.61768214027957  6.475459433173258  120.000000
1.456  0.000000  0.000000  0.000000  -41.9933522663446  9.626337952436717  -0.8037341619124716  66.67721345164297  36.4256741444843  10.130883852765638  -28.466380968452714  63.86917103086592  29.65274358724704  6.463302174333442  120.000000
1.4839999999999998  0.000000  0.000000  0.000000  -42.10048974523232  9.722862719420904  -0.55763865960422  66.81275919083384  36.36039517499786  10.228091071906022  -28.505635112106326  64.00227540049877  29.682820037078713  6.469520913302568  120.000000
1.5119999999999998  0.000000  0.000000  0.000000  -42.1713690497683  9.787993258101128  -0.35938206315994103  66.91774851276897  36.284468309640445  10.278795712966394  -28.524940846245936  64.06754187278018  29.71079189580768  6.486823551934281  120.000000
1.5399999999999998  0.000000  0.000000  0.000000  -42.21078594915598  9.831693606547942  -0.2125214783578643  66.99053169933022  36.20502352192296  10.29812463589775  -28.5275287767745  64.0693810340992  29.736358949960465  6.508504130789542  120.000000
1.5679999999999998  0.000000  0.000000  0.000000  -42.22245853129999  9.861615754123267  -0.11749987627004366  67.03098163037018  36.12763619652263  10.298124569825022  -28.517573061015323  64.01381019058246  29.75654277179871  6.529403110728659  120.000000
1.5959999999999999  0.000000  0.000000  0.000000  -42.20717888084976  9.874010724184554  -0.07058814476584484  67.04166207095038  36.05471921099327  10.275580915346433  -28.49486356698037  63.911788697497094  29.766713843140707  6.546687948767253  120.000000
1.6239999999999999  0.000000  0.000000  0.000000  -42.16463289190583  9.860187487438989  -0.06644142289072218  67.02592734770344  35.98693471043996  10.220590248675116  -28.4569159300026  63.774922243872965  29.762167526126714  6.5589744248314155  120.000000
1.652  0.000000  0.000000  0.000000  -42.09587302531113  9.815802801223285  -0.10049135138967602  66.98596889589825  35.924799521692606  10.128542137048779  -28.4025102994468  63.61051686839839  29.739507396637055  6.565461535087987  120.000000
1.6799999999999997  0.000000  0.000000  0.000000  -42.00377715327536  9.740732380788351  -0.16881260705826048  66.92305047316255  35.86908803115689  9.99987024857034  -28.330770538187174  63.421339595752634  29.697467039018413  6.566177325904293  120.000000
1.7079999999999997  0.000000  0.000000  0.000000  -41.892279137693244  9.637032683281257  -0.2677797071426422  66.83788245396254  35.820861277948964  9.837747716709803  -28.240372792841452  63.206539251157814  29.636787417642743  6.562287810266232  120.000000
1.7359999999999998  0.000000  0.000000  0.000000  -41.7654610758996  9.507926942923756  -0.39420280815085956  66.7312265956537  35.78123066980287  9.646758547768687  -28.129917984361217  62.96246737242935  29.55940558554406  6.55585167539897  120.000000
1.7639999999999998  0.000000  0.000000  0.000000  -41.62667512664842  9.356845780010497  -0.5456908372072627  66.60462287513992  35.75098785605022  9.431780873841603  -27.998469429667715  62.68389770971244  29.467451902511655  6.5494716062285  120.000000
1.7919999999999998  0.000000  0.000000  0.000000  -41.477835617869864  9.187197980844223  -0.7211240451064285  66.46100286699182  35.73009681219919  9.197463566713502  -27.846393159821364  62.36495261234741  29.36234917621362  6.545692585348363  120.000000
1.8199999999999998  0.000000  0.000000  0.000000  -41.31909714039949  9.002325778522163  -0.9210154731795969  66.30469583662098  35.71720731280155  8.948208042142822  -27.675810854115532  61.99982024909914  29.244385727662912  6.546475727219953  120.000000
1.8479999999999999  0.000000  0.000000  0.000000  -41.1489694098674  8.805468806714039  -1.1474862971967779  66.14088334269874  35.70981286692871  8.688162689242896  -27.490375402693786  61.58297140069263  29.113037829136292  6.553225545240954  120.000000
1.876  0.000000  0.000000  0.000000  -40.9648524206493  8.599937492903516  -1.403801783035575  65.97461399445417  35.70467272563775  8.421582148788781  -27.294290067090365  61.109248181908754  28.967955935979546  6.567105512192151  120.000000
1.904  0.000000  0.000000  0.000000  -40.76382886987838  8.38917315640395  -1.6936294017561615  65.80966982200916  35.69841265007054  8.152895731353015  -27.09122426344213  60.5736247037261  28.810284633064512  6.589302351378913  120.000000
1.9319999999999997  0.000000  0.000000  0.000000  -40.54344098653489  8.176649830520228  -2.0204878405018323  65.64716508874608  35.68789373182429  7.886672567826895  -26.88336690467318  59.971162784463  28.644089806196583  6.621313506488579  120.000000
1.9599999999999997  0.000000  0.000000  0.000000  -40.30253758224824  7.965808164257295  -2.387384302566227  65.48526865943859  35.67055299529012  7.627424027143725  -26.670990627440588  59.29695429409495  28.477037705053874  6.664930281170673  120.000000
1.9879999999999998  0.000000  0.000000  0.000000  -40.04153717834231  7.7599559066929595  -2.7968195345811084  65.3196274075928  35.644416346230926  7.3796570956819  -26.45258112842536  58.5467186422265  28.319935666762678  6.722114949000721  120.000000
2.016  0.000000  0.000000  0.000000  -39.76217833380789  7.562152429003167  -3.2509043931811323  65.14459732160118  35.608022362204345  7.147688041719096  -26.22597674836661  57.717383278581494  28.184957934501718  6.794785001620206  120.000000
2.0439999999999996  0.000000  0.000000  0.000000  -39.4672926448457  7.374730855364791  -3.7512821372468115  64.95505497946817  35.56029443813181  6.935326750252154  -25.990147666803917  56.8075642901257  28.083201052323883  6.884669408870721  120.000000
2.0719999999999996  0.000000  0.000000  0.000000  -39.16065023769668  7.198529353182482  -4.29905922560429  64.74806683297399  35.500732370815065  6.745179570341772  -25.74642833639367  55.817651937773974  28.022253696538254  6.9931979245201505  120.000000
2.0999999999999996  0.000000  0.000000  0.000000  -38.84667053636372  7.032175252455858  -4.894517956729588  64.52417040246664  35.42970273621313  6.578013728003446  -25.49919905230138  54.749797556362495  28.004670967758504  7.121598604826406  120.000000
2.1279999999999997  0.000000  0.000000  0.000000  -38.5300324621678  6.871886845469011  -5.536871197239214  64.28791568371608  35.3483390314357  6.432602903298933  -25.25560701929959  53.60811514738145  28.027787426217316  7.270876764105124  120.000000
2.1559999999999997  0.000000  0.000000  0.000000  -38.21508417893689  6.712027549626206  -6.2242375133781955  64.04689579774178  35.258244704500996  6.306140730799305  -25.02430956571741  52.3986199759027  28.08562782440813  7.44155320043765  120.000000
2.1839999999999997  0.000000  0.000000  0.000000  -37.90530661869569  6.546245331030279  -6.95376544716949  63.810150197422345  35.160585248977306  6.194894721807524  -24.813938639279648  51.12909378246755  28.172086945812683  7.63338387861636  120.000000
2.2119999999999997  0.000000  0.000000  0.000000  -37.60283621197501  6.368853392287557  -7.721970584527522  63.585936152922045  35.05518485561033  6.0954178030710855  -24.631357613620647  49.80862861090224  28.284410002116186  7.845067531237972  120.000000
2.2399999999999998  0.000000  0.000000  0.000000  -37.30756367221539  6.175953959534542  -8.525320961776332  63.37966632333763  34.93996541317257  6.005464975840643  -24.480082679884667  48.44739847891164  28.425568341946192  8.073832872564115  120.000000
2.268  0.000000  0.000000  0.000000  -37.01673511914799  5.966040944991645  -9.36067520371124  63.1926984881059  34.81120111245941  5.924831271019718  -24.359581356324824  47.05628670980783  28.6052452787531  8.315316996326667  120.000000
2.296  0.000000  0.000000  0.000000  -36.72524875044675  5.739762309945729  -10.225600319820037  63.02234766613012  34.66419140731703  5.855420627496255  -24.265619001301822  45.646656675961935  28.838319290215964  8.564084702390083  120.000000
2.324  0.000000  0.000000  0.000000  -36.426670000964386  5.499163803057833  -11.1180428137885  62.862841193795326  34.49413191873464  5.80074612607542  -24.191240984167134  44.229999679548975  29.14211861780695  8.8143093363123  120.000000
2.352  0.000000  0.000000  0.000000  -36.11439942881468  5.246932232904658  -12.035821413306865  62.70697386237081  34.29678287396236  5.765035505261214  -24.12799986723766  42.818078853912695  29.533016443823026  9.060594513218618  120.000000
2.38  0.000000  0.000000  0.000000  -35.78280383330405  4.985632250609467  -12.97620419297813  62.54731722133407  34.06939564876765  5.752346443764176  -24.066798452339064  41.422985579642244  30.023474179231446  9.298582800987985  120.000000
2.408  0.000000  0.000000  0.000000  -35.4277767516735  4.717132757341058  -13.935757293005583  62.37718482576248  33.81142341130937  5.765812401365522  -23.998888388829698  40.05728320799713  30.620253099917782  9.525185840868028  120.000000
2.436  0.000000  0.000000  0.000000  -35.04674189165812  4.442492495534136  -14.91075865691755  62.19073779348862  33.525117223953245  5.80753362085747  -23.9159236400724  38.73384739763402  31.323846987584428  9.73825741943582  120.000000
2.4639999999999995  0.000000  0.000000  0.000000  -34.638177495148774  4.16242773615353  -15.89658013906923  61.98303597372798  33.21501804633233  5.8783999693330085  -23.810257764730164  37.46493696659402  32.12932096822601  9.936117343345584  120.000000
2.4919999999999995  0.000000  0.000000  0.000000  -34.20130989719808  3.877925519269743  -16.885420528604424  61.74965478275718  32.88600932703938  5.976853287864105  -23.674835414326118  36.26029395095328  33.02667040906001  10.117447924014973  120.000000
2.5199999999999996  0.000000  0.000000  0.000000  -33.736578352721  3.5904578448122484  -17.86484579908723  61.48655095594428  32.543122423162636  6.097886627201984  -23.5039874288442  35.1241387569126  34.00183594336738  10.281463321278736  120.000000
2.5479999999999996  0.000000  0.000000  0.000000  -33.24651734630161  3.3022741964411315  -18.817776060512642  61.190958161837415  32.19181397459826  6.2326859286481975  -23.29356471558496  34.052424416140006  35.03632704212782  10.428864497467025  120.000000
2.5759999999999996  0.000000  0.000000  0.000000  -32.73658270745277  3.016790503167879  -19.722573089118683  60.86324173733897  31.838441655421374  6.369129622835328  -23.040771490592956  33.029544467170005  36.10862753831241  10.563756426713187  120.000000
2.6039999999999996  0.000000  0.000000  0.000000  -32.214357385433985  2.7382617047942643  -20.554115309701633  60.509447273617106  31.48928475689418  6.491921339933613  -22.742923360362262  32.02686928935257  37.194683083887014  10.696700319778122  120.000000
2.6319999999999997  0.000000  0.000000  0.000000  -31.68879025618302  2.470783732665759  -21.28469764341324  60.14426500751255  31.14853046665458  6.583400030697436  -22.39657116257566  31.002072061714014  38.26983225756955  10.847130653921083  120.000000
2.6599999999999997  0.000000  0.000000  0.000000  -31.16776212417675  2.2166872235515016  -21.887662414660348  59.7924136908766  30.814644537866428  6.624933037501686  -21.997382806704852  29.901904642253868  39.309764469383296  11.044626962372144  120.000000
2.6879999999999997  0.000000  0.000000  0.000000  -30.65778244549231  1.9733037423747346  -22.343867307337728  59.48774637341572  30.477536040643482  6.599716010342801  -21.541369106381175  28.668564085475555  40.29249001509725  11.327124308991543  120.000000
